<svg width="100" height="100" viewBox="0 0 100 100" fill="none" xmlns="http://www.w3.org/2000/svg">
<rect width="100" height="100" rx="15" fill="white"/>
<path d="M18.1 57V43H20.1V55.26H27.68V57H18.1ZM36.0411 57.16C34.9744 57.16 33.9811 56.98 33.0611 56.62C32.1544 56.26 31.3678 55.76 30.7011 55.12C30.0344 54.4667 29.5144 53.7067 29.1411 52.84C28.7678 51.9733 28.5811 51.0267 28.5811 50C28.5811 48.9733 28.7678 48.0267 29.1411 47.16C29.5144 46.2933 30.0344 45.54 30.7011 44.9C31.3678 44.2467 32.1544 43.74 33.0611 43.38C33.9678 43.02 34.9611 42.84 36.0411 42.84C37.1078 42.84 38.0878 43.02 38.9811 43.38C39.8878 43.7267 40.6744 44.2267 41.3411 44.88C42.0211 45.52 42.5411 46.2733 42.9011 47.14C43.2744 48.0067 43.4611 48.96 43.4611 50C43.4611 51.04 43.2744 51.9933 42.9011 52.86C42.5411 53.7267 42.0211 54.4867 41.3411 55.14C40.6744 55.78 39.8878 56.28 38.9811 56.64C38.0878 56.9867 37.1078 57.16 36.0411 57.16ZM36.0411 55.38C36.8144 55.38 37.5278 55.2467 38.1811 54.98C38.8478 54.7133 39.4211 54.34 39.9011 53.86C40.3944 53.3667 40.7744 52.7933 41.0411 52.14C41.3211 51.4867 41.4611 50.7733 41.4611 50C41.4611 49.2267 41.3211 48.5133 41.0411 47.86C40.7744 47.2067 40.3944 46.64 39.9011 46.16C39.4211 45.6667 38.8478 45.2867 38.1811 45.02C37.5278 44.7533 36.8144 44.62 36.0411 44.62C35.2544 44.62 34.5278 44.7533 33.8611 45.02C33.2078 45.2867 32.6344 45.6667 32.1411 46.16C31.6478 46.64 31.2611 47.2067 30.9811 47.86C30.7144 48.5133 30.5811 49.2267 30.5811 50C30.5811 50.7733 30.7144 51.4867 30.9811 52.14C31.2611 52.7933 31.6478 53.3667 32.1411 53.86C32.6344 54.34 33.2078 54.7133 33.8611 54.98C34.5278 55.2467 35.2544 55.38 36.0411 55.38ZM52.838 57.16C51.758 57.16 50.7646 56.9867 49.858 56.64C48.9513 56.28 48.1646 55.78 47.498 55.14C46.8313 54.4867 46.3113 53.7267 45.938 52.86C45.5646 51.9933 45.378 51.04 45.378 50C45.378 48.96 45.5646 48.0067 45.938 47.14C46.3113 46.2733 46.8313 45.52 47.498 44.88C48.178 44.2267 48.9713 43.7267 49.878 43.38C50.7846 43.02 51.7846 42.84 52.878 42.84C53.9846 42.84 54.998 43.02 55.918 43.38C56.838 43.74 57.618 44.28 58.258 45L57.018 46.24C56.4446 45.68 55.818 45.2733 55.138 45.02C54.4713 44.7533 53.7446 44.62 52.958 44.62C52.158 44.62 51.4113 44.7533 50.718 45.02C50.038 45.2867 49.4446 45.66 48.938 46.14C48.4446 46.62 48.058 47.1933 47.778 47.86C47.5113 48.5133 47.378 49.2267 47.378 50C47.378 50.76 47.5113 51.4733 47.778 52.14C48.058 52.7933 48.4446 53.3667 48.938 53.86C49.4446 54.34 50.038 54.7133 50.718 54.98C51.398 55.2467 52.138 55.38 52.938 55.38C53.6846 55.38 54.398 55.2667 55.078 55.04C55.7713 54.8 56.4113 54.4067 56.998 53.86L58.138 55.38C57.4446 55.9667 56.6313 56.4133 55.698 56.72C54.778 57.0133 53.8246 57.16 52.838 57.16ZM56.218 55.12V49.92H58.138V55.38L56.218 55.12ZM68.2872 57.16C67.2205 57.16 66.2272 56.98 65.3072 56.62C64.4005 56.26 63.6139 55.76 62.9472 55.12C62.2805 54.4667 61.7605 53.7067 61.3872 52.84C61.0139 51.9733 60.8272 51.0267 60.8272 50C60.8272 48.9733 61.0139 48.0267 61.3872 47.16C61.7605 46.2933 62.2805 45.54 62.9472 44.9C63.6139 44.2467 64.4005 43.74 65.3072 43.38C66.2139 43.02 67.2072 42.84 68.2872 42.84C69.3539 42.84 70.3339 43.02 71.2272 43.38C72.1339 43.7267 72.9205 44.2267 73.5872 44.88C74.2672 45.52 74.7872 46.2733 75.1472 47.14C75.5205 48.0067 75.7072 48.96 75.7072 50C75.7072 51.04 75.5205 51.9933 75.1472 52.86C74.7872 53.7267 74.2672 54.4867 73.5872 55.14C72.9205 55.78 72.1339 56.28 71.2272 56.64C70.3339 56.9867 69.3539 57.16 68.2872 57.16ZM68.2872 55.38C69.0605 55.38 69.7739 55.2467 70.4272 54.98C71.0939 54.7133 71.6672 54.34 72.1472 53.86C72.6405 53.3667 73.0205 52.7933 73.2872 52.14C73.5672 51.4867 73.7072 50.7733 73.7072 50C73.7072 49.2267 73.5672 48.5133 73.2872 47.86C73.0205 47.2067 72.6405 46.64 72.1472 46.16C71.6672 45.6667 71.0939 45.2867 70.4272 45.02C69.7739 44.7533 69.0605 44.62 68.2872 44.62C67.5005 44.62 66.7739 44.7533 66.1072 45.02C65.4539 45.2867 64.8805 45.6667 64.3872 46.16C63.8939 46.64 63.5072 47.2067 63.2272 47.86C62.9605 48.5133 62.8272 49.2267 62.8272 50C62.8272 50.7733 62.9605 51.4867 63.2272 52.14C63.5072 52.7933 63.8939 53.3667 64.3872 53.86C64.8805 54.34 65.4539 54.7133 66.1072 54.98C66.7739 55.2467 67.5005 55.38 68.2872 55.38Z" fill="black"/>
</svg>
