<svg width="32" height="32" viewBox="0 0 32 32" fill="none" xmlns="http://www.w3.org/2000/svg">
<path d="M32 16C32 7.16344 24.8366 0 16 0C7.16344 0 0 7.16344 0 16C0 24.8366 7.16344 32 16 32C24.8366 32 32 24.8366 32 16Z" fill="white" fill-opacity="0.2"/>
<path d="M20.0002 19.8999C20.5002 21.1999 20.3002 22.3999 20.3002 23.6999C20.3002 24.0999 20.3002 24.4999 20.3002 24.9999C20.3002 25.4999 20.0002 25.7999 19.5002 25.7999C19.1002 25.7999 18.8002 25.4999 18.8002 24.9999C18.8002 23.8999 18.8002 22.8999 18.8002 21.7999C18.8002 21.0999 18.7002 20.3999 18.1002 19.7999C17.7002 19.3999 18.0002 18.6999 18.6002 18.5999C19.1002 18.4999 19.6002 18.3999 20.1002 18.2999C22.2002 17.6999 23.3002 16.2999 23.5002 14.1999C23.6002 12.7999 23.4002 11.5999 22.4002 10.4999C22.2002 10.2999 22.2002 9.89994 22.3002 9.69994C22.5002 8.99994 22.5002 8.29994 22.3002 7.49994C21.5002 7.69994 20.8002 7.99994 20.1002 8.49994C19.8002 8.69994 19.5002 8.79994 19.1002 8.69994C17.3002 8.19994 15.5002 8.19994 13.6002 8.69994C13.2002 8.79994 12.9002 8.69994 12.6002 8.49994C11.9002 7.99994 11.1002 7.69994 10.3002 7.49994C10.1002 8.19994 10.1002 8.79994 10.3002 9.49994C10.4002 9.99994 10.3002 10.2999 10.0002 10.6999C9.30018 11.3999 9.00018 12.1999 9.10018 13.0999C9.10018 13.7999 9.20018 14.3999 9.30018 15.0999C9.70018 16.8999 10.9002 17.9999 12.7002 18.3999C13.1002 18.4999 13.5002 18.4999 13.9002 18.5999C14.2002 18.6999 14.5002 18.8999 14.6002 19.0999C14.8002 19.3999 14.6002 19.6999 14.4002 19.8999C14.0002 20.2999 13.9002 20.7999 13.9002 21.2999C13.9002 22.3999 13.9002 23.4999 13.9002 24.5999C13.9002 24.6999 13.9002 24.8999 13.9002 24.9999C13.8002 25.3999 13.5002 25.5999 13.1002 25.5999C12.7002 25.5999 12.4002 25.2999 12.4002 24.8999C12.4002 24.4999 12.4002 24.0999 12.4002 23.6999C11.9002 23.5999 11.4002 23.5999 10.9002 23.4999C9.70018 23.1999 8.70018 22.5999 8.30018 21.3999C8.10018 20.8999 7.70018 20.4999 7.20018 20.2999C6.70018 20.0999 6.50018 19.6999 6.70018 19.2999C6.90018 18.8999 7.30018 18.7999 7.80018 18.9999C8.60018 19.3999 9.30018 19.9999 9.70018 20.7999C10.2002 21.8999 11.3002 22.3999 12.5002 22.1999C12.6002 21.3999 12.6002 20.6999 12.7002 19.8999C12.5002 19.7999 12.2002 19.7999 12.0002 19.6999C9.40018 18.8999 8.00018 16.9999 7.70018 14.3999C7.60018 12.7999 7.70018 11.2999 8.80018 9.99994C8.90018 9.89994 8.90018 9.69994 8.80018 9.59994C8.60018 8.69994 8.60018 7.79994 8.90018 6.89994C9.10018 6.09994 9.50018 5.79994 10.3002 5.99994C11.1002 6.19994 11.9002 6.39994 12.6002 6.79994C13.1002 7.09994 13.6002 7.19994 14.2002 7.09994C15.8002 6.79994 17.4002 6.79994 19.1002 7.19994C19.3002 7.19994 19.6002 7.19994 19.8002 7.09994C20.6002 6.59994 21.5002 6.19994 22.4002 6.09994C23.2002 5.99994 23.6002 6.19994 23.8002 6.99994C24.0002 7.69994 24.0002 8.49994 23.9002 9.39994C23.8002 9.69994 23.9002 9.99994 24.1002 10.1999C26.4002 13.5999 24.5002 18.6999 20.5002 19.7999C20.3002 19.7999 20.1002 19.8999 20.0002 19.8999Z" fill="white"/>
</svg>
